<svg width="332" height="538" viewBox="0 0 332 538" fill="none" xmlns="http://www.w3.org/2000/svg">
<rect x="0.5" width="331" height="538" fill="white"/>
<path d="M18.1932 76.802H238.388C243.911 76.802 248.388 81.2792 248.388 86.802V141.092C248.388 146.615 243.911 151.092 238.388 151.092H28.1932C22.6704 151.092 18.1932 146.615 18.1932 141.092V76.802Z" fill="#0C1B4D" fill-opacity="0.05"/>
<rect x="37.0273" y="96.6824" width="193.573" height="10.4634" fill="#0C1B4D" fill-opacity="0.15"/>
<rect x="37.0273" y="117.609" width="114.051" height="10.4634" fill="#0C1B4D" fill-opacity="0.15"/>
<path d="M171.831 159.724L165.596 165.959L162.762 163.125" stroke="#4A72FF" stroke-width="2" stroke-linecap="round" stroke-linejoin="round"/>
<path d="M184.728 166.324V160.464H182.748V159.764H187.548V160.464H185.568V166.324H184.728ZM189.876 166.444C189.576 166.444 189.289 166.387 189.016 166.274C188.749 166.16 188.512 165.997 188.306 165.784C188.099 165.564 187.932 165.297 187.806 164.984C187.686 164.664 187.626 164.304 187.626 163.904C187.626 163.497 187.686 163.137 187.806 162.824C187.932 162.504 188.099 162.234 188.306 162.014C188.512 161.794 188.749 161.627 189.016 161.514C189.289 161.4 189.576 161.344 189.876 161.344C190.176 161.344 190.459 161.4 190.726 161.514C190.999 161.627 191.239 161.794 191.446 162.014C191.652 162.234 191.816 162.504 191.936 162.824C192.062 163.137 192.126 163.497 192.126 163.904C192.126 164.304 192.062 164.664 191.936 164.984C191.816 165.297 191.652 165.564 191.446 165.784C191.239 165.997 190.999 166.16 190.726 166.274C190.459 166.387 190.176 166.444 189.876 166.444ZM189.876 165.764C190.082 165.764 190.272 165.72 190.446 165.634C190.619 165.54 190.766 165.414 190.886 165.254C191.012 165.087 191.109 164.89 191.176 164.664C191.242 164.437 191.276 164.184 191.276 163.904C191.276 163.624 191.242 163.37 191.176 163.144C191.109 162.91 191.012 162.71 190.886 162.544C190.766 162.377 190.619 162.25 190.446 162.164C190.272 162.07 190.082 162.024 189.876 162.024C189.669 162.024 189.479 162.07 189.306 162.164C189.132 162.25 188.982 162.377 188.856 162.544C188.736 162.71 188.642 162.91 188.576 163.144C188.509 163.37 188.476 163.624 188.476 163.904C188.476 164.184 188.509 164.437 188.576 164.664C188.642 164.89 188.736 165.087 188.856 165.254C188.982 165.414 189.132 165.54 189.306 165.634C189.479 165.72 189.669 165.764 189.876 165.764ZM195.066 166.444C194.452 166.444 193.962 166.224 193.596 165.784C193.236 165.344 193.056 164.717 193.056 163.904C193.056 163.51 193.112 163.157 193.226 162.844C193.346 162.524 193.502 162.254 193.696 162.034C193.889 161.814 194.112 161.644 194.366 161.524C194.619 161.404 194.886 161.344 195.166 161.344C195.446 161.344 195.689 161.394 195.896 161.494C196.102 161.594 196.312 161.73 196.526 161.904L196.486 161.074V159.204H197.316V166.324H196.636L196.566 165.754H196.536C196.342 165.94 196.119 166.104 195.866 166.244C195.619 166.377 195.352 166.444 195.066 166.444ZM195.246 165.754C195.472 165.754 195.686 165.7 195.886 165.594C196.086 165.48 196.286 165.31 196.486 165.084V162.544C196.279 162.357 196.079 162.227 195.886 162.154C195.699 162.074 195.506 162.034 195.306 162.034C195.112 162.034 194.929 162.08 194.756 162.174C194.589 162.26 194.442 162.387 194.316 162.554C194.189 162.714 194.089 162.907 194.016 163.134C193.942 163.36 193.906 163.614 193.906 163.894C193.906 164.48 194.022 164.937 194.256 165.264C194.489 165.59 194.819 165.754 195.246 165.754ZM200.072 166.444C199.666 166.444 199.326 166.324 199.052 166.084C198.786 165.844 198.652 165.504 198.652 165.064C198.652 164.53 198.889 164.124 199.362 163.844C199.836 163.557 200.592 163.357 201.632 163.244C201.632 163.09 201.616 162.94 201.582 162.794C201.556 162.647 201.506 162.517 201.432 162.404C201.359 162.29 201.256 162.2 201.122 162.134C200.996 162.06 200.832 162.024 200.632 162.024C200.352 162.024 200.089 162.077 199.842 162.184C199.596 162.29 199.376 162.41 199.182 162.544L198.862 161.974C199.089 161.827 199.366 161.687 199.692 161.554C200.019 161.414 200.379 161.344 200.772 161.344C201.366 161.344 201.796 161.527 202.062 161.894C202.329 162.254 202.462 162.737 202.462 163.344V166.324H201.782L201.712 165.744H201.682C201.449 165.937 201.199 166.104 200.932 166.244C200.666 166.377 200.379 166.444 200.072 166.444ZM200.312 165.784C200.546 165.784 200.766 165.73 200.972 165.624C201.179 165.51 201.399 165.347 201.632 165.134V163.784C201.226 163.837 200.882 163.9 200.602 163.974C200.329 164.047 200.106 164.134 199.932 164.234C199.766 164.334 199.642 164.45 199.562 164.584C199.489 164.71 199.452 164.85 199.452 165.004C199.452 165.284 199.536 165.484 199.702 165.604C199.869 165.724 200.072 165.784 200.312 165.784ZM204.072 168.414C203.958 168.414 203.855 168.404 203.762 168.384C203.668 168.37 203.582 168.347 203.502 168.314L203.662 167.664C203.715 167.677 203.775 167.69 203.842 167.704C203.908 167.724 203.972 167.734 204.032 167.734C204.312 167.734 204.538 167.634 204.712 167.434C204.892 167.24 205.032 166.994 205.132 166.694L205.242 166.334L203.292 161.464H204.142L205.132 164.154C205.205 164.367 205.282 164.594 205.362 164.834C205.448 165.067 205.528 165.297 205.602 165.524H205.642C205.715 165.304 205.785 165.074 205.852 164.834C205.918 164.594 205.985 164.367 206.052 164.154L206.922 161.464H207.722L205.892 166.724C205.805 166.964 205.708 167.187 205.602 167.394C205.495 167.6 205.368 167.777 205.222 167.924C205.075 168.077 204.908 168.197 204.722 168.284C204.535 168.37 204.318 168.414 204.072 168.414ZM208.158 168.024L207.958 167.544C208.245 167.417 208.468 167.247 208.628 167.034C208.788 166.827 208.865 166.59 208.858 166.324C208.838 166.33 208.805 166.334 208.758 166.334C208.598 166.334 208.458 166.287 208.338 166.194C208.225 166.094 208.168 165.95 208.168 165.764C208.168 165.584 208.228 165.444 208.348 165.344C208.468 165.237 208.611 165.184 208.778 165.184C208.991 165.184 209.158 165.27 209.278 165.444C209.405 165.617 209.468 165.854 209.468 166.154C209.468 166.587 209.351 166.964 209.118 167.284C208.885 167.604 208.565 167.85 208.158 168.024ZM213.92 166.444C213.513 166.444 213.173 166.324 212.9 166.084C212.633 165.844 212.5 165.504 212.5 165.064C212.5 164.53 212.737 164.124 213.21 163.844C213.683 163.557 214.44 163.357 215.48 163.244C215.48 163.09 215.463 162.94 215.43 162.794C215.403 162.647 215.353 162.517 215.28 162.404C215.207 162.29 215.103 162.2 214.97 162.134C214.843 162.06 214.68 162.024 214.48 162.024C214.2 162.024 213.937 162.077 213.69 162.184C213.443 162.29 213.223 162.41 213.03 162.544L212.71 161.974C212.937 161.827 213.213 161.687 213.54 161.554C213.867 161.414 214.227 161.344 214.62 161.344C215.213 161.344 215.643 161.527 215.91 161.894C216.177 162.254 216.31 162.737 216.31 163.344V166.324H215.63L215.56 165.744H215.53C215.297 165.937 215.047 166.104 214.78 166.244C214.513 166.377 214.227 166.444 213.92 166.444ZM214.16 165.784C214.393 165.784 214.613 165.73 214.82 165.624C215.027 165.51 215.247 165.347 215.48 165.134V163.784C215.073 163.837 214.73 163.9 214.45 163.974C214.177 164.047 213.953 164.134 213.78 164.234C213.613 164.334 213.49 164.45 213.41 164.584C213.337 164.71 213.3 164.85 213.3 165.004C213.3 165.284 213.383 165.484 213.55 165.604C213.717 165.724 213.92 165.784 214.16 165.784ZM219.232 166.444C218.972 166.444 218.752 166.404 218.572 166.324C218.399 166.244 218.256 166.134 218.142 165.994C218.036 165.854 217.959 165.684 217.912 165.484C217.866 165.284 217.842 165.064 217.842 164.824V162.134H217.122V161.514L217.882 161.464L217.982 160.104H218.672V161.464H219.982V162.134H218.672V164.834C218.672 165.134 218.726 165.367 218.832 165.534C218.946 165.694 219.142 165.774 219.422 165.774C219.509 165.774 219.602 165.76 219.702 165.734C219.802 165.707 219.892 165.677 219.972 165.644L220.132 166.264C219.999 166.31 219.852 166.35 219.692 166.384C219.539 166.424 219.386 166.444 219.232 166.444ZM223.053 166.324V165.644H224.513V160.944H223.353V160.414C223.647 160.36 223.9 160.297 224.113 160.224C224.333 160.144 224.53 160.05 224.703 159.944H225.333V165.644H226.653V166.324H223.053ZM229.574 166.444C229.321 166.444 229.087 166.417 228.874 166.364C228.667 166.317 228.477 166.254 228.304 166.174C228.137 166.094 227.984 166.004 227.844 165.904C227.711 165.797 227.591 165.687 227.484 165.574L227.884 165.034C228.071 165.227 228.291 165.397 228.544 165.544C228.804 165.69 229.121 165.764 229.494 165.764C229.687 165.764 229.867 165.73 230.034 165.664C230.207 165.59 230.357 165.49 230.484 165.364C230.611 165.237 230.711 165.084 230.784 164.904C230.857 164.724 230.894 164.524 230.894 164.304C230.894 163.864 230.771 163.52 230.524 163.274C230.277 163.027 229.947 162.904 229.534 162.904C229.314 162.904 229.124 162.937 228.964 163.004C228.811 163.07 228.637 163.167 228.444 163.294L228.004 163.014L228.214 159.944H231.404V160.654H228.934L228.764 162.544C228.917 162.464 229.071 162.4 229.224 162.354C229.377 162.307 229.551 162.284 229.744 162.284C230.017 162.284 230.274 162.324 230.514 162.404C230.754 162.484 230.964 162.607 231.144 162.774C231.324 162.934 231.464 163.14 231.564 163.394C231.671 163.64 231.724 163.937 231.724 164.284C231.724 164.63 231.664 164.937 231.544 165.204C231.424 165.47 231.264 165.697 231.064 165.884C230.864 166.064 230.634 166.204 230.374 166.304C230.121 166.397 229.854 166.444 229.574 166.444ZM233.455 162.834C233.288 162.834 233.145 162.777 233.025 162.664C232.911 162.544 232.855 162.394 232.855 162.214C232.855 162.02 232.911 161.867 233.025 161.754C233.145 161.634 233.288 161.574 233.455 161.574C233.615 161.574 233.751 161.634 233.865 161.754C233.985 161.867 234.045 162.02 234.045 162.214C234.045 162.394 233.985 162.544 233.865 162.664C233.751 162.777 233.615 162.834 233.455 162.834ZM233.455 166.444C233.288 166.444 233.145 166.387 233.025 166.274C232.911 166.154 232.855 166.004 232.855 165.824C232.855 165.63 232.911 165.477 233.025 165.364C233.145 165.244 233.288 165.184 233.455 165.184C233.615 165.184 233.751 165.244 233.865 165.364C233.985 165.477 234.045 165.63 234.045 165.824C234.045 166.004 233.985 166.154 233.865 166.274C233.751 166.387 233.615 166.444 233.455 166.444ZM237.055 166.444C236.802 166.444 236.568 166.417 236.355 166.364C236.148 166.317 235.958 166.254 235.785 166.174C235.612 166.087 235.455 165.99 235.315 165.884C235.182 165.777 235.062 165.664 234.955 165.544L235.375 165.004C235.568 165.204 235.792 165.38 236.045 165.534C236.305 165.687 236.625 165.764 237.005 165.764C237.392 165.764 237.708 165.66 237.955 165.454C238.202 165.24 238.325 164.954 238.325 164.594C238.325 164.407 238.288 164.237 238.215 164.084C238.148 163.924 238.035 163.787 237.875 163.674C237.715 163.56 237.505 163.474 237.245 163.414C236.985 163.354 236.665 163.324 236.285 163.324V162.694C236.625 162.694 236.908 162.664 237.135 162.604C237.368 162.544 237.555 162.46 237.695 162.354C237.842 162.247 237.945 162.12 238.005 161.974C238.065 161.827 238.095 161.67 238.095 161.504C238.095 161.19 237.995 160.944 237.795 160.764C237.602 160.584 237.335 160.494 236.995 160.494C236.728 160.494 236.482 160.554 236.255 160.674C236.035 160.794 235.828 160.95 235.635 161.144L235.195 160.624C235.442 160.39 235.712 160.2 236.005 160.054C236.305 159.9 236.645 159.824 237.025 159.824C237.305 159.824 237.562 159.86 237.795 159.934C238.028 160.007 238.228 160.114 238.395 160.254C238.568 160.387 238.702 160.554 238.795 160.754C238.888 160.954 238.935 161.184 238.935 161.444C238.935 161.83 238.828 162.147 238.615 162.394C238.402 162.64 238.122 162.83 237.775 162.964V163.004C237.968 163.05 238.148 163.12 238.315 163.214C238.482 163.3 238.628 163.414 238.755 163.554C238.882 163.687 238.978 163.844 239.045 164.024C239.118 164.204 239.155 164.404 239.155 164.624C239.155 164.904 239.098 165.157 238.985 165.384C238.878 165.61 238.728 165.804 238.535 165.964C238.348 166.117 238.128 166.237 237.875 166.324C237.622 166.404 237.348 166.444 237.055 166.444ZM242.156 166.444C241.509 166.444 241.006 166.157 240.646 165.584C240.286 165.01 240.106 164.187 240.106 163.114C240.106 162.04 240.286 161.224 240.646 160.664C241.006 160.104 241.509 159.824 242.156 159.824C242.796 159.824 243.296 160.104 243.656 160.664C244.016 161.224 244.196 162.04 244.196 163.114C244.196 164.187 244.016 165.01 243.656 165.584C243.296 166.157 242.796 166.444 242.156 166.444ZM242.156 165.784C242.342 165.784 242.509 165.734 242.656 165.634C242.809 165.527 242.939 165.367 243.046 165.154C243.159 164.934 243.246 164.657 243.306 164.324C243.366 163.984 243.396 163.58 243.396 163.114C243.396 162.647 243.366 162.247 243.306 161.914C243.246 161.58 243.159 161.31 243.046 161.104C242.939 160.89 242.809 160.734 242.656 160.634C242.509 160.534 242.342 160.484 242.156 160.484C241.969 160.484 241.799 160.534 241.646 160.634C241.492 160.734 241.359 160.89 241.246 161.104C241.139 161.31 241.056 161.58 240.996 161.914C240.936 162.247 240.906 162.647 240.906 163.114C240.906 164.047 241.019 164.727 241.246 165.154C241.479 165.574 241.782 165.784 242.156 165.784Z" fill="black" fill-opacity="0.6"/>
<path d="M18.1932 336.294H238.388C243.911 336.294 248.388 340.771 248.388 346.294V425.696C248.388 431.219 243.911 435.696 238.388 435.696H28.1932C22.6704 435.696 18.1932 431.219 18.1932 425.696V336.294Z" fill="#0C1B4D" fill-opacity="0.05"/>
<path d="M37.0273 356.174H225.368C228.258 356.174 230.6 358.517 230.6 361.406C230.6 364.295 228.258 366.638 225.368 366.638H37.0273V356.174Z" fill="#0C1B4D" fill-opacity="0.15"/>
<path d="M37.0273 377.101H225.368C228.258 377.101 230.6 379.444 230.6 382.333C230.6 385.222 228.258 387.565 225.368 387.565H37.0273V377.101Z" fill="#0C1B4D" fill-opacity="0.15"/>
<path d="M37.0273 398.028H142.708C145.597 398.028 147.939 400.37 147.939 403.26C147.939 406.149 145.597 408.491 142.708 408.491H37.0273V398.028Z" fill="#0C1B4D" fill-opacity="0.15"/>
<path d="M171.831 445.375L165.596 451.609L162.762 448.775" stroke="#4A72FF" stroke-width="2" stroke-linecap="round" stroke-linejoin="round"/>
<path d="M184.728 451.974V446.114H182.748V445.414H187.548V446.114H185.568V451.974H184.728ZM189.876 452.094C189.576 452.094 189.289 452.037 189.016 451.924C188.749 451.811 188.512 451.647 188.306 451.434C188.099 451.214 187.932 450.947 187.806 450.634C187.686 450.314 187.626 449.954 187.626 449.554C187.626 449.147 187.686 448.787 187.806 448.474C187.932 448.154 188.099 447.884 188.306 447.664C188.512 447.444 188.749 447.277 189.016 447.164C189.289 447.051 189.576 446.994 189.876 446.994C190.176 446.994 190.459 447.051 190.726 447.164C190.999 447.277 191.239 447.444 191.446 447.664C191.652 447.884 191.816 448.154 191.936 448.474C192.062 448.787 192.126 449.147 192.126 449.554C192.126 449.954 192.062 450.314 191.936 450.634C191.816 450.947 191.652 451.214 191.446 451.434C191.239 451.647 190.999 451.811 190.726 451.924C190.459 452.037 190.176 452.094 189.876 452.094ZM189.876 451.414C190.082 451.414 190.272 451.371 190.446 451.284C190.619 451.191 190.766 451.064 190.886 450.904C191.012 450.737 191.109 450.541 191.176 450.314C191.242 450.087 191.276 449.834 191.276 449.554C191.276 449.274 191.242 449.021 191.176 448.794C191.109 448.561 191.012 448.361 190.886 448.194C190.766 448.027 190.619 447.901 190.446 447.814C190.272 447.721 190.082 447.674 189.876 447.674C189.669 447.674 189.479 447.721 189.306 447.814C189.132 447.901 188.982 448.027 188.856 448.194C188.736 448.361 188.642 448.561 188.576 448.794C188.509 449.021 188.476 449.274 188.476 449.554C188.476 449.834 188.509 450.087 188.576 450.314C188.642 450.541 188.736 450.737 188.856 450.904C188.982 451.064 189.132 451.191 189.306 451.284C189.479 451.371 189.669 451.414 189.876 451.414ZM195.066 452.094C194.452 452.094 193.962 451.874 193.596 451.434C193.236 450.994 193.056 450.367 193.056 449.554C193.056 449.161 193.112 448.807 193.226 448.494C193.346 448.174 193.502 447.904 193.696 447.684C193.889 447.464 194.112 447.294 194.366 447.174C194.619 447.054 194.886 446.994 195.166 446.994C195.446 446.994 195.689 447.044 195.896 447.144C196.102 447.244 196.312 447.381 196.526 447.554L196.486 446.724V444.854H197.316V451.974H196.636L196.566 451.404H196.536C196.342 451.591 196.119 451.754 195.866 451.894C195.619 452.027 195.352 452.094 195.066 452.094ZM195.246 451.404C195.472 451.404 195.686 451.351 195.886 451.244C196.086 451.131 196.286 450.961 196.486 450.734V448.194C196.279 448.007 196.079 447.877 195.886 447.804C195.699 447.724 195.506 447.684 195.306 447.684C195.112 447.684 194.929 447.731 194.756 447.824C194.589 447.911 194.442 448.037 194.316 448.204C194.189 448.364 194.089 448.557 194.016 448.784C193.942 449.011 193.906 449.264 193.906 449.544C193.906 450.131 194.022 450.587 194.256 450.914C194.489 451.241 194.819 451.404 195.246 451.404ZM200.072 452.094C199.666 452.094 199.326 451.974 199.052 451.734C198.786 451.494 198.652 451.154 198.652 450.714C198.652 450.181 198.889 449.774 199.362 449.494C199.836 449.207 200.592 449.007 201.632 448.894C201.632 448.741 201.616 448.591 201.582 448.444C201.556 448.297 201.506 448.167 201.432 448.054C201.359 447.941 201.256 447.851 201.122 447.784C200.996 447.711 200.832 447.674 200.632 447.674C200.352 447.674 200.089 447.727 199.842 447.834C199.596 447.941 199.376 448.061 199.182 448.194L198.862 447.624C199.089 447.477 199.366 447.337 199.692 447.204C200.019 447.064 200.379 446.994 200.772 446.994C201.366 446.994 201.796 447.177 202.062 447.544C202.329 447.904 202.462 448.387 202.462 448.994V451.974H201.782L201.712 451.394H201.682C201.449 451.587 201.199 451.754 200.932 451.894C200.666 452.027 200.379 452.094 200.072 452.094ZM200.312 451.434C200.546 451.434 200.766 451.381 200.972 451.274C201.179 451.161 201.399 450.997 201.632 450.784V449.434C201.226 449.487 200.882 449.551 200.602 449.624C200.329 449.697 200.106 449.784 199.932 449.884C199.766 449.984 199.642 450.101 199.562 450.234C199.489 450.361 199.452 450.501 199.452 450.654C199.452 450.934 199.536 451.134 199.702 451.254C199.869 451.374 200.072 451.434 200.312 451.434ZM204.072 454.064C203.958 454.064 203.855 454.054 203.762 454.034C203.668 454.021 203.582 453.997 203.502 453.964L203.662 453.314C203.715 453.327 203.775 453.341 203.842 453.354C203.908 453.374 203.972 453.384 204.032 453.384C204.312 453.384 204.538 453.284 204.712 453.084C204.892 452.891 205.032 452.644 205.132 452.344L205.242 451.984L203.292 447.114H204.142L205.132 449.804C205.205 450.017 205.282 450.244 205.362 450.484C205.448 450.717 205.528 450.947 205.602 451.174H205.642C205.715 450.954 205.785 450.724 205.852 450.484C205.918 450.244 205.985 450.017 206.052 449.804L206.922 447.114H207.722L205.892 452.374C205.805 452.614 205.708 452.837 205.602 453.044C205.495 453.251 205.368 453.427 205.222 453.574C205.075 453.727 204.908 453.847 204.722 453.934C204.535 454.021 204.318 454.064 204.072 454.064ZM208.158 453.674L207.958 453.194C208.245 453.067 208.468 452.897 208.628 452.684C208.788 452.477 208.865 452.241 208.858 451.974C208.838 451.981 208.805 451.984 208.758 451.984C208.598 451.984 208.458 451.937 208.338 451.844C208.225 451.744 208.168 451.601 208.168 451.414C208.168 451.234 208.228 451.094 208.348 450.994C208.468 450.887 208.611 450.834 208.778 450.834C208.991 450.834 209.158 450.921 209.278 451.094C209.405 451.267 209.468 451.504 209.468 451.804C209.468 452.237 209.351 452.614 209.118 452.934C208.885 453.254 208.565 453.501 208.158 453.674ZM213.92 452.094C213.513 452.094 213.173 451.974 212.9 451.734C212.633 451.494 212.5 451.154 212.5 450.714C212.5 450.181 212.737 449.774 213.21 449.494C213.683 449.207 214.44 449.007 215.48 448.894C215.48 448.741 215.463 448.591 215.43 448.444C215.403 448.297 215.353 448.167 215.28 448.054C215.207 447.941 215.103 447.851 214.97 447.784C214.843 447.711 214.68 447.674 214.48 447.674C214.2 447.674 213.937 447.727 213.69 447.834C213.443 447.941 213.223 448.061 213.03 448.194L212.71 447.624C212.937 447.477 213.213 447.337 213.54 447.204C213.867 447.064 214.227 446.994 214.62 446.994C215.213 446.994 215.643 447.177 215.91 447.544C216.177 447.904 216.31 448.387 216.31 448.994V451.974H215.63L215.56 451.394H215.53C215.297 451.587 215.047 451.754 214.78 451.894C214.513 452.027 214.227 452.094 213.92 452.094ZM214.16 451.434C214.393 451.434 214.613 451.381 214.82 451.274C215.027 451.161 215.247 450.997 215.48 450.784V449.434C215.073 449.487 214.73 449.551 214.45 449.624C214.177 449.697 213.953 449.784 213.78 449.884C213.613 449.984 213.49 450.101 213.41 450.234C213.337 450.361 213.3 450.501 213.3 450.654C213.3 450.934 213.383 451.134 213.55 451.254C213.717 451.374 213.92 451.434 214.16 451.434ZM219.232 452.094C218.972 452.094 218.752 452.054 218.572 451.974C218.399 451.894 218.256 451.784 218.142 451.644C218.036 451.504 217.959 451.334 217.912 451.134C217.866 450.934 217.842 450.714 217.842 450.474V447.784H217.122V447.164L217.882 447.114L217.982 445.754H218.672V447.114H219.982V447.784H218.672V450.484C218.672 450.784 218.726 451.017 218.832 451.184C218.946 451.344 219.142 451.424 219.422 451.424C219.509 451.424 219.602 451.411 219.702 451.384C219.802 451.357 219.892 451.327 219.972 451.294L220.132 451.914C219.999 451.961 219.852 452.001 219.692 452.034C219.539 452.074 219.386 452.094 219.232 452.094ZM223.053 451.974V451.294H224.513V446.594H223.353V446.064C223.647 446.011 223.9 445.947 224.113 445.874C224.333 445.794 224.53 445.701 224.703 445.594H225.333V451.294H226.653V451.974H223.053ZM229.574 452.094C229.321 452.094 229.087 452.067 228.874 452.014C228.667 451.967 228.477 451.904 228.304 451.824C228.137 451.744 227.984 451.654 227.844 451.554C227.711 451.447 227.591 451.337 227.484 451.224L227.884 450.684C228.071 450.877 228.291 451.047 228.544 451.194C228.804 451.341 229.121 451.414 229.494 451.414C229.687 451.414 229.867 451.381 230.034 451.314C230.207 451.241 230.357 451.141 230.484 451.014C230.611 450.887 230.711 450.734 230.784 450.554C230.857 450.374 230.894 450.174 230.894 449.954C230.894 449.514 230.771 449.171 230.524 448.924C230.277 448.677 229.947 448.554 229.534 448.554C229.314 448.554 229.124 448.587 228.964 448.654C228.811 448.721 228.637 448.817 228.444 448.944L228.004 448.664L228.214 445.594H231.404V446.304H228.934L228.764 448.194C228.917 448.114 229.071 448.051 229.224 448.004C229.377 447.957 229.551 447.934 229.744 447.934C230.017 447.934 230.274 447.974 230.514 448.054C230.754 448.134 230.964 448.257 231.144 448.424C231.324 448.584 231.464 448.791 231.564 449.044C231.671 449.291 231.724 449.587 231.724 449.934C231.724 450.281 231.664 450.587 231.544 450.854C231.424 451.121 231.264 451.347 231.064 451.534C230.864 451.714 230.634 451.854 230.374 451.954C230.121 452.047 229.854 452.094 229.574 452.094ZM233.455 448.484C233.288 448.484 233.145 448.427 233.025 448.314C232.911 448.194 232.855 448.044 232.855 447.864C232.855 447.671 232.911 447.517 233.025 447.404C233.145 447.284 233.288 447.224 233.455 447.224C233.615 447.224 233.751 447.284 233.865 447.404C233.985 447.517 234.045 447.671 234.045 447.864C234.045 448.044 233.985 448.194 233.865 448.314C233.751 448.427 233.615 448.484 233.455 448.484ZM233.455 452.094C233.288 452.094 233.145 452.037 233.025 451.924C232.911 451.804 232.855 451.654 232.855 451.474C232.855 451.281 232.911 451.127 233.025 451.014C233.145 450.894 233.288 450.834 233.455 450.834C233.615 450.834 233.751 450.894 233.865 451.014C233.985 451.127 234.045 451.281 234.045 451.474C234.045 451.654 233.985 451.804 233.865 451.924C233.751 452.037 233.615 452.094 233.455 452.094ZM237.035 452.094C236.782 452.094 236.548 452.067 236.335 452.014C236.128 451.967 235.938 451.904 235.765 451.824C235.598 451.744 235.445 451.654 235.305 451.554C235.172 451.447 235.052 451.337 234.945 451.224L235.345 450.684C235.532 450.877 235.752 451.047 236.005 451.194C236.265 451.341 236.582 451.414 236.955 451.414C237.148 451.414 237.328 451.381 237.495 451.314C237.668 451.241 237.818 451.141 237.945 451.014C238.072 450.887 238.172 450.734 238.245 450.554C238.318 450.374 238.355 450.174 238.355 449.954C238.355 449.514 238.232 449.171 237.985 448.924C237.738 448.677 237.408 448.554 236.995 448.554C236.775 448.554 236.585 448.587 236.425 448.654C236.272 448.721 236.098 448.817 235.905 448.944L235.465 448.664L235.675 445.594H238.865V446.304H236.395L236.225 448.194C236.378 448.114 236.532 448.051 236.685 448.004C236.838 447.957 237.012 447.934 237.205 447.934C237.478 447.934 237.735 447.974 237.975 448.054C238.215 448.134 238.425 448.257 238.605 448.424C238.785 448.584 238.925 448.791 239.025 449.044C239.132 449.291 239.185 449.587 239.185 449.934C239.185 450.281 239.125 450.587 239.005 450.854C238.885 451.121 238.725 451.347 238.525 451.534C238.325 451.714 238.095 451.854 237.835 451.954C237.582 452.047 237.315 452.094 237.035 452.094ZM242.156 452.094C241.509 452.094 241.006 451.807 240.646 451.234C240.286 450.661 240.106 449.837 240.106 448.764C240.106 447.691 240.286 446.874 240.646 446.314C241.006 445.754 241.509 445.474 242.156 445.474C242.796 445.474 243.296 445.754 243.656 446.314C244.016 446.874 244.196 447.691 244.196 448.764C244.196 449.837 244.016 450.661 243.656 451.234C243.296 451.807 242.796 452.094 242.156 452.094ZM242.156 451.434C242.342 451.434 242.509 451.384 242.656 451.284C242.809 451.177 242.939 451.017 243.046 450.804C243.159 450.584 243.246 450.307 243.306 449.974C243.366 449.634 243.396 449.231 243.396 448.764C243.396 448.297 243.366 447.897 243.306 447.564C243.246 447.231 243.159 446.961 243.046 446.754C242.939 446.541 242.809 446.384 242.656 446.284C242.509 446.184 242.342 446.134 242.156 446.134C241.969 446.134 241.799 446.184 241.646 446.284C241.492 446.384 241.359 446.541 241.246 446.754C241.139 446.961 241.056 447.231 240.996 447.564C240.936 447.897 240.906 448.297 240.906 448.764C240.906 449.697 241.019 450.377 241.246 450.804C241.479 451.224 241.782 451.434 242.156 451.434Z" fill="black" fill-opacity="0.6"/>
<path d="M83.0662 216.548C83.0662 211.025 87.5434 206.548 93.0662 206.548H313.261V270.838C313.261 276.361 308.784 280.838 303.261 280.838H93.0662C87.5434 280.838 83.0662 276.361 83.0662 270.838V216.548Z" fill="#4A72FF"/>
<rect x="101.9" y="226.428" width="193.573" height="10.4634" fill="white" fill-opacity="0.25"/>
<rect x="101.9" y="247.355" width="60.6876" height="10.4634" fill="white" fill-opacity="0.25"/>
<path d="M94.4016 289.47L88.1671 295.705L85.3333 292.871" stroke="#4A72FF" stroke-width="2" stroke-linecap="round" stroke-linejoin="round"/>
<path d="M107.299 296.07V290.21H105.319V289.51H110.119V290.21H108.139V296.07H107.299ZM112.447 296.19C112.147 296.19 111.86 296.133 111.587 296.02C111.32 295.906 111.083 295.743 110.877 295.53C110.67 295.31 110.503 295.043 110.377 294.73C110.257 294.41 110.197 294.05 110.197 293.65C110.197 293.243 110.257 292.883 110.377 292.57C110.503 292.25 110.67 291.98 110.877 291.76C111.083 291.54 111.32 291.373 111.587 291.26C111.86 291.146 112.147 291.09 112.447 291.09C112.747 291.09 113.03 291.146 113.297 291.26C113.57 291.373 113.81 291.54 114.017 291.76C114.223 291.98 114.387 292.25 114.507 292.57C114.633 292.883 114.697 293.243 114.697 293.65C114.697 294.05 114.633 294.41 114.507 294.73C114.387 295.043 114.223 295.31 114.017 295.53C113.81 295.743 113.57 295.906 113.297 296.02C113.03 296.133 112.747 296.19 112.447 296.19ZM112.447 295.51C112.653 295.51 112.843 295.466 113.017 295.38C113.19 295.286 113.337 295.16 113.457 295C113.583 294.833 113.68 294.636 113.747 294.41C113.813 294.183 113.847 293.93 113.847 293.65C113.847 293.37 113.813 293.116 113.747 292.89C113.68 292.656 113.583 292.456 113.457 292.29C113.337 292.123 113.19 291.996 113.017 291.91C112.843 291.816 112.653 291.77 112.447 291.77C112.24 291.77 112.05 291.816 111.877 291.91C111.703 291.996 111.553 292.123 111.427 292.29C111.307 292.456 111.213 292.656 111.147 292.89C111.08 293.116 111.047 293.37 111.047 293.65C111.047 293.93 111.08 294.183 111.147 294.41C111.213 294.636 111.307 294.833 111.427 295C111.553 295.16 111.703 295.286 111.877 295.38C112.05 295.466 112.24 295.51 112.447 295.51ZM117.637 296.19C117.023 296.19 116.533 295.97 116.167 295.53C115.807 295.09 115.627 294.463 115.627 293.65C115.627 293.256 115.683 292.903 115.797 292.59C115.917 292.27 116.073 292 116.267 291.78C116.46 291.56 116.683 291.39 116.937 291.27C117.19 291.15 117.457 291.09 117.737 291.09C118.017 291.09 118.26 291.14 118.467 291.24C118.673 291.34 118.883 291.476 119.097 291.65L119.057 290.82V288.95H119.887V296.07H119.207L119.137 295.5H119.107C118.913 295.686 118.69 295.85 118.437 295.99C118.19 296.123 117.923 296.19 117.637 296.19ZM117.817 295.5C118.043 295.5 118.257 295.446 118.457 295.34C118.657 295.226 118.857 295.056 119.057 294.83V292.29C118.85 292.103 118.65 291.973 118.457 291.9C118.27 291.82 118.077 291.78 117.877 291.78C117.683 291.78 117.5 291.826 117.327 291.92C117.16 292.006 117.013 292.133 116.887 292.3C116.76 292.46 116.66 292.653 116.587 292.88C116.513 293.106 116.477 293.36 116.477 293.64C116.477 294.226 116.593 294.683 116.827 295.01C117.06 295.336 117.39 295.5 117.817 295.5ZM122.643 296.19C122.237 296.19 121.897 296.07 121.623 295.83C121.357 295.59 121.223 295.25 121.223 294.81C121.223 294.276 121.46 293.87 121.933 293.59C122.407 293.303 123.163 293.103 124.203 292.99C124.203 292.836 124.187 292.686 124.153 292.54C124.127 292.393 124.077 292.263 124.003 292.15C123.93 292.036 123.827 291.946 123.693 291.88C123.567 291.806 123.403 291.77 123.203 291.77C122.923 291.77 122.66 291.823 122.413 291.93C122.167 292.036 121.947 292.156 121.753 292.29L121.433 291.72C121.66 291.573 121.937 291.433 122.263 291.3C122.59 291.16 122.95 291.09 123.343 291.09C123.937 291.09 124.367 291.273 124.633 291.64C124.9 292 125.033 292.483 125.033 293.09V296.07H124.353L124.283 295.49H124.253C124.02 295.683 123.77 295.85 123.503 295.99C123.237 296.123 122.95 296.19 122.643 296.19ZM122.883 295.53C123.117 295.53 123.337 295.476 123.543 295.37C123.75 295.256 123.97 295.093 124.203 294.88V293.53C123.797 293.583 123.453 293.646 123.173 293.72C122.9 293.793 122.677 293.88 122.503 293.98C122.337 294.08 122.213 294.196 122.133 294.33C122.06 294.456 122.023 294.596 122.023 294.75C122.023 295.03 122.107 295.23 122.273 295.35C122.44 295.47 122.643 295.53 122.883 295.53ZM126.642 298.16C126.529 298.16 126.426 298.15 126.332 298.13C126.239 298.116 126.152 298.093 126.072 298.06L126.232 297.41C126.286 297.423 126.346 297.436 126.412 297.45C126.479 297.47 126.542 297.48 126.602 297.48C126.882 297.48 127.109 297.38 127.282 297.18C127.462 296.986 127.602 296.74 127.702 296.44L127.812 296.08L125.862 291.21H126.712L127.702 293.9C127.776 294.113 127.852 294.34 127.932 294.58C128.019 294.813 128.099 295.043 128.172 295.27H128.212C128.286 295.05 128.356 294.82 128.422 294.58C128.489 294.34 128.556 294.113 128.622 293.9L129.492 291.21H130.292L128.462 296.47C128.376 296.71 128.279 296.933 128.172 297.14C128.066 297.346 127.939 297.523 127.792 297.67C127.646 297.823 127.479 297.943 127.292 298.03C127.106 298.116 126.889 298.16 126.642 298.16ZM130.729 297.77L130.529 297.29C130.816 297.163 131.039 296.993 131.199 296.78C131.359 296.573 131.436 296.336 131.429 296.07C131.409 296.076 131.376 296.08 131.329 296.08C131.169 296.08 131.029 296.033 130.909 295.94C130.796 295.84 130.739 295.696 130.739 295.51C130.739 295.33 130.799 295.19 130.919 295.09C131.039 294.983 131.182 294.93 131.349 294.93C131.562 294.93 131.729 295.016 131.849 295.19C131.976 295.363 132.039 295.6 132.039 295.9C132.039 296.333 131.922 296.71 131.689 297.03C131.456 297.35 131.136 297.596 130.729 297.77ZM136.491 296.19C136.084 296.19 135.744 296.07 135.471 295.83C135.204 295.59 135.071 295.25 135.071 294.81C135.071 294.276 135.308 293.87 135.781 293.59C136.254 293.303 137.011 293.103 138.051 292.99C138.051 292.836 138.034 292.686 138.001 292.54C137.974 292.393 137.924 292.263 137.851 292.15C137.778 292.036 137.674 291.946 137.541 291.88C137.414 291.806 137.251 291.77 137.051 291.77C136.771 291.77 136.508 291.823 136.261 291.93C136.014 292.036 135.794 292.156 135.601 292.29L135.281 291.72C135.508 291.573 135.784 291.433 136.111 291.3C136.438 291.16 136.798 291.09 137.191 291.09C137.784 291.09 138.214 291.273 138.481 291.64C138.748 292 138.881 292.483 138.881 293.09V296.07H138.201L138.131 295.49H138.101C137.868 295.683 137.618 295.85 137.351 295.99C137.084 296.123 136.798 296.19 136.491 296.19ZM136.731 295.53C136.964 295.53 137.184 295.476 137.391 295.37C137.598 295.256 137.818 295.093 138.051 294.88V293.53C137.644 293.583 137.301 293.646 137.021 293.72C136.748 293.793 136.524 293.88 136.351 293.98C136.184 294.08 136.061 294.196 135.981 294.33C135.908 294.456 135.871 294.596 135.871 294.75C135.871 295.03 135.954 295.23 136.121 295.35C136.288 295.47 136.491 295.53 136.731 295.53ZM141.803 296.19C141.543 296.19 141.323 296.15 141.143 296.07C140.97 295.99 140.827 295.88 140.713 295.74C140.607 295.6 140.53 295.43 140.483 295.23C140.437 295.03 140.413 294.81 140.413 294.57V291.88H139.693V291.26L140.453 291.21L140.553 289.85H141.243V291.21H142.553V291.88H141.243V294.58C141.243 294.88 141.297 295.113 141.403 295.28C141.517 295.44 141.713 295.52 141.993 295.52C142.08 295.52 142.173 295.506 142.273 295.48C142.373 295.453 142.463 295.423 142.543 295.39L142.703 296.01C142.57 296.056 142.423 296.096 142.263 296.13C142.11 296.17 141.957 296.19 141.803 296.19ZM145.624 296.07V295.39H147.084V290.69H145.924V290.16C146.218 290.106 146.471 290.043 146.684 289.97C146.904 289.89 147.101 289.796 147.274 289.69H147.904V295.39H149.224V296.07H145.624ZM152.145 296.19C151.892 296.19 151.658 296.163 151.445 296.11C151.238 296.063 151.048 296 150.875 295.92C150.708 295.84 150.555 295.75 150.415 295.65C150.282 295.543 150.162 295.433 150.055 295.32L150.455 294.78C150.642 294.973 150.862 295.143 151.115 295.29C151.375 295.436 151.692 295.51 152.065 295.51C152.258 295.51 152.438 295.476 152.605 295.41C152.778 295.336 152.928 295.236 153.055 295.11C153.182 294.983 153.282 294.83 153.355 294.65C153.428 294.47 153.465 294.27 153.465 294.05C153.465 293.61 153.342 293.266 153.095 293.02C152.848 292.773 152.518 292.65 152.105 292.65C151.885 292.65 151.695 292.683 151.535 292.75C151.382 292.816 151.208 292.913 151.015 293.04L150.575 292.76L150.785 289.69H153.975V290.4H151.505L151.335 292.29C151.488 292.21 151.642 292.146 151.795 292.1C151.948 292.053 152.122 292.03 152.315 292.03C152.588 292.03 152.845 292.07 153.085 292.15C153.325 292.23 153.535 292.353 153.715 292.52C153.895 292.68 154.035 292.886 154.135 293.14C154.242 293.386 154.295 293.683 154.295 294.03C154.295 294.376 154.235 294.683 154.115 294.95C153.995 295.216 153.835 295.443 153.635 295.63C153.435 295.81 153.205 295.95 152.945 296.05C152.692 296.143 152.425 296.19 152.145 296.19ZM156.026 292.58C155.859 292.58 155.716 292.523 155.596 292.41C155.482 292.29 155.426 292.14 155.426 291.96C155.426 291.766 155.482 291.613 155.596 291.5C155.716 291.38 155.859 291.32 156.026 291.32C156.186 291.32 156.322 291.38 156.436 291.5C156.556 291.613 156.616 291.766 156.616 291.96C156.616 292.14 156.556 292.29 156.436 292.41C156.322 292.523 156.186 292.58 156.026 292.58ZM156.026 296.19C155.859 296.19 155.716 296.133 155.596 296.02C155.482 295.9 155.426 295.75 155.426 295.57C155.426 295.376 155.482 295.223 155.596 295.11C155.716 294.99 155.859 294.93 156.026 294.93C156.186 294.93 156.322 294.99 156.436 295.11C156.556 295.223 156.616 295.376 156.616 295.57C156.616 295.75 156.556 295.9 156.436 296.02C156.322 296.133 156.186 296.19 156.026 296.19ZM159.626 296.19C159.373 296.19 159.139 296.163 158.926 296.11C158.719 296.063 158.529 296 158.356 295.92C158.183 295.833 158.026 295.736 157.886 295.63C157.753 295.523 157.633 295.41 157.526 295.29L157.946 294.75C158.139 294.95 158.363 295.126 158.616 295.28C158.876 295.433 159.196 295.51 159.576 295.51C159.963 295.51 160.279 295.406 160.526 295.2C160.773 294.986 160.896 294.7 160.896 294.34C160.896 294.153 160.859 293.983 160.786 293.83C160.719 293.67 160.606 293.533 160.446 293.42C160.286 293.306 160.076 293.22 159.816 293.16C159.556 293.1 159.236 293.07 158.856 293.07V292.44C159.196 292.44 159.479 292.41 159.706 292.35C159.939 292.29 160.126 292.206 160.266 292.1C160.413 291.993 160.516 291.866 160.576 291.72C160.636 291.573 160.666 291.416 160.666 291.25C160.666 290.936 160.566 290.69 160.366 290.51C160.173 290.33 159.906 290.24 159.566 290.24C159.299 290.24 159.053 290.3 158.826 290.42C158.606 290.54 158.399 290.696 158.206 290.89L157.766 290.37C158.013 290.136 158.283 289.946 158.576 289.8C158.876 289.646 159.216 289.57 159.596 289.57C159.876 289.57 160.133 289.606 160.366 289.68C160.599 289.753 160.799 289.86 160.966 290C161.139 290.133 161.273 290.3 161.366 290.5C161.459 290.7 161.506 290.93 161.506 291.19C161.506 291.576 161.399 291.893 161.186 292.14C160.973 292.386 160.693 292.576 160.346 292.71V292.75C160.539 292.796 160.719 292.866 160.886 292.96C161.053 293.046 161.199 293.16 161.326 293.3C161.453 293.433 161.549 293.59 161.616 293.77C161.689 293.95 161.726 294.15 161.726 294.37C161.726 294.65 161.669 294.903 161.556 295.13C161.449 295.356 161.299 295.55 161.106 295.71C160.919 295.863 160.699 295.983 160.446 296.07C160.193 296.15 159.919 296.19 159.626 296.19ZM165.277 296.07V294.31H162.407V293.77L165.137 289.69H166.057V293.65H166.927V294.31H166.057V296.07H165.277ZM163.277 293.65H165.277V291.8C165.277 291.626 165.28 291.423 165.287 291.19C165.3 290.95 165.313 290.743 165.327 290.57H165.287C165.207 290.723 165.123 290.873 165.037 291.02C164.95 291.166 164.86 291.316 164.767 291.47L163.277 293.65Z" fill="black" fill-opacity="0.6"/>
</svg>
