<svg width="24" height="24" viewBox="0 0 24 24" fill="none" xmlns="http://www.w3.org/2000/svg">
<path d="M17 2H7C4.23858 2 2 4.23858 2 7V17C2 19.7614 4.23858 22 7 22H17C19.7614 22 22 19.7614 22 17V7C22 4.23858 19.7614 2 17 2Z" stroke="#0C1B4D" stroke-width="2" stroke-linecap="round" stroke-linejoin="round"/>
<path d="M16 11.3698C16.1234 12.2021 15.9813 13.052 15.5938 13.7988C15.2063 14.5456 14.5932 15.1512 13.8416 15.5295C13.0901 15.9077 12.2385 16.0394 11.4078 15.9057C10.5771 15.7721 9.80977 15.3799 9.21485 14.785C8.61993 14.1901 8.22774 13.4227 8.09408 12.592C7.96042 11.7614 8.09208 10.9097 8.47034 10.1582C8.8486 9.40667 9.4542 8.79355 10.201 8.40605C10.9478 8.01856 11.7978 7.8764 12.63 7.99981C13.4789 8.1257 14.2649 8.52128 14.8717 9.12812C15.4785 9.73496 15.8741 10.5209 16 11.3698Z" stroke="#0C1B4D" stroke-width="2" stroke-linecap="round" stroke-linejoin="round"/>
<path d="M17.5 6.5H17.51" stroke="#0C1B4D" stroke-width="2" stroke-linecap="round" stroke-linejoin="round"/>
</svg>
